<svg id="Layer_1" data-name="Layer 1" xmlns="http://www.w3.org/2000/svg" viewBox="0 0 64 64"><defs><style>.cls-1{fill:#eb7d2f;fill-rule:evenodd}</style></defs><path class="cls-1" d="M373.25 183a32 32 0 1 0 32 32 32 32 0 0 0-32-32zm0 59a27 27 0 1 1 27-27 27 27 0 0 1-27 27z" transform="translate(-341.25 -183)"/><path id="STAR" class="cls-1" d="M385.58 213l-6.45 4.67 2.48 7.59a1.1 1.1 0 0 1 .06.37 1.2 1.2 0 0 1-1.2 1.2 1.15 1.15 0 0 1-.7-.23l-6.5-4.7-6.49 4.7a1.16 1.16 0 0 1-.71.23 1.2 1.2 0 0 1-1.2-1.2 1.1 1.1 0 0 1 .06-.37l2.49-7.59L361 213a1.2 1.2 0 0 1 .7-2.17h8l2.48-7.55a1.19 1.19 0 0 1 1.14-.85 1.21 1.21 0 0 1 1.15.85l2.47 7.55h8a1.2 1.2 0 0 1 .71 2.17z" transform="translate(-341.25 -183)"/></svg>