<svg version="1.1" id="Layer_1" xmlns="http://www.w3.org/2000/svg" x="0" y="0" viewBox="0 0 64 64" xml:space="preserve"><style>.st0{fill:#ec7d30}</style><path class="st0" d="M32 0C14.3 0 0 14.3 0 32s14.3 32 32 32 32-14.3 32-32S49.7 0 32 0zm0 59C17.1 59 5 46.9 5 32S17.1 5 32 5s27 12.1 27 27-12.1 27-27 27z"/><path id="MACBOOK" class="st0" d="M49 44.5H15.6c-1 0-1.7-.8-1.7-1.7v-2.9h3.5V23.2c0-.9.8-1.7 1.7-1.7h26.5c.9 0 1.7.8 1.7 1.7v16.7h3.5v2.9c-.1.9-.9 1.7-1.8 1.7zm-20.8-1.7h8.1v-1.1h-8.1v1.1zm16.8-19H19.6v15H45v-15z"/><path id="MAIL" class="st0" d="M34.3 31.2l3.5-3.4c.1.1.2.2.2.4V35c0 .1 0 .3-.1.4l-3.6-4.2zm-7.7-3.4c.1-.1.2-.1.4-.1h10.4c.1 0 .3 0 .4.1l-5.6 4.4-5.6-4.4zm0 7.6c-.1-.1-.1-.2-.2-.4v-6.8c0-.1.1-.3.2-.4l3.5 3.4-3.5 4.2zm5.7-2.2l1.5-1.4 4.1 3.6c-.1.1-.2.2-.4.1H27c-.1 0-.3-.1-.4-.1l4.1-3.6 1.6 1.4z"/></svg>