<svg version="1.1" id="Layer_1" xmlns="http://www.w3.org/2000/svg" x="0" y="0" viewBox="0 0 64 64" xml:space="preserve"><style>.st0{fill:#ec7d30}</style><path class="st0" d="M32 0C14.3 0 0 14.3 0 32s14.3 32 32 32 32-14.3 32-32S49.7 0 32 0zm0 59C17.1 59 5 46.9 5 32S17.1 5 32 5s27 12.1 27 27-12.1 27-27 27z"/><path id="BOOK_2" class="st0" d="M47.7 44.4l-14.5 6c-.4.2-.8.2-1.2 0l-14.5-6c-.6-.2-.9-.8-.9-1.4V20c0-.8.7-1.5 1.5-1.5.2 0 .4 0 .6.1l13.9 5.8 13.9-5.8c.2-.1.4-.1.6-.1.8 0 1.5.7 1.5 1.5v23c0 .6-.4 1.1-.9 1.4zM31.1 27l-11.5-4.8V42l11.5 4.8V27zm14.5-4.8L34.1 27v19.8L45.6 42V22.2zm-9.1 6.9l5.5-2.5c.2-.1.4-.1.6-.1.8 0 1.5.7 1.5 1.5 0 .6-.3 1.1-.9 1.3l-5.5 2.5c-.2.2-.4.2-.6.2-.8 0-1.5-.7-1.5-1.5 0-.6.4-1.1.9-1.4zm0 5.5l5.5-2.5c.2-.1.4-.1.6-.1.8 0 1.5.7 1.5 1.5 0 .6-.3 1.1-.9 1.3l-5.5 2.5c-.2.1-.4.1-.6.1-.8 0-1.5-.7-1.5-1.5 0-.5.4-1 .9-1.3zm0 5.5l5.5-2.5c.2-.1.4-.1.6-.1.8 0 1.5.7 1.5 1.5 0 .6-.3 1.1-.9 1.3l-5.5 2.5c-.2.2-.4.2-.6.2-.8 0-1.5-.7-1.5-1.5 0-.6.4-1.1.9-1.4zM22.6 26.5c.2 0 .4 0 .6.1l5.5 2.5c.8.3 1.1 1.2.8 2-.2.5-.8.9-1.4.9-.2 0-.4 0-.6-.1L22 29.4c-.8-.3-1.1-1.2-.7-2 .2-.6.7-.9 1.3-.9zm0 5.5c.2 0 .4 0 .6.1l5.5 2.5c.8.3 1.1 1.2.8 2-.2.5-.8.9-1.4.9-.2 0-.4 0-.6-.1L22 34.9c-.8-.3-1.1-1.2-.7-2 .2-.6.7-.9 1.3-.9zm0 5.5c.2 0 .4 0 .6.1l5.5 2.5c.8.3 1.1 1.2.8 2-.2.5-.8.9-1.4.9-.2 0-.4 0-.6-.1L22 40.4c-.8-.3-1.1-1.2-.7-2 .2-.6.7-.9 1.3-.9z"/></svg>