<svg id="Layer_1" data-name="Layer 1" xmlns="http://www.w3.org/2000/svg" viewBox="0 0 64 64"><defs><style>.cls-1{fill:#29b7a0;fill-rule:evenodd}</style></defs><path class="cls-1" d="M335.25 183a32 32 0 1 0 32 32 32 32 0 0 0-32-32zm0 59a27 27 0 1 1 27-27 27 27 0 0 1-27 27z" transform="translate(-303.25 -183)"/><path id="BOOK_2" data-name="BOOK 2" class="cls-1" d="M350.94 227.36l-14.48 6a1.51 1.51 0 0 1-1.18 0l-14.47-6a1.51 1.51 0 0 1-.94-1.39V203a1.5 1.5 0 0 1 1.5-1.5 1.52 1.52 0 0 1 .57.11l13.91 5.75 13.91-5.75a1.52 1.52 0 0 1 .57-.11 1.5 1.5 0 0 1 1.5 1.5v23a1.51 1.51 0 0 1-.89 1.36zM334.37 210l-11.5-4.76V225l11.5 4.75zm14.5-4.76l-11.5 4.76v19.75l11.5-4.75zm-9.12 6.89l5.5-2.5a1.6 1.6 0 0 1 .62-.13 1.5 1.5 0 0 1 .62 2.86l-5.5 2.5a1.44 1.44 0 0 1-.62.14 1.5 1.5 0 0 1-.62-2.87zm0 5.5l5.5-2.5a1.6 1.6 0 0 1 .62-.13 1.5 1.5 0 0 1 .62 2.86l-5.5 2.5a1.44 1.44 0 0 1-.62.14 1.5 1.5 0 0 1-.62-2.87zm0 5.5l5.5-2.5a1.6 1.6 0 0 1 .62-.13 1.5 1.5 0 0 1 .62 2.86l-5.5 2.5a1.44 1.44 0 0 1-.62.14 1.5 1.5 0 0 1-.62-2.87zm-13.88-13.63a1.6 1.6 0 0 1 .62.13l5.5 2.5a1.5 1.5 0 0 1-.62 2.87 1.44 1.44 0 0 1-.62-.14l-5.5-2.5a1.5 1.5 0 0 1 .62-2.86zm0 5.5a1.6 1.6 0 0 1 .62.13l5.5 2.5a1.5 1.5 0 0 1-.62 2.87 1.44 1.44 0 0 1-.62-.14l-5.5-2.5a1.5 1.5 0 0 1 .62-2.86zm0 5.5a1.6 1.6 0 0 1 .62.13l5.5 2.5a1.5 1.5 0 0 1-.62 2.87 1.44 1.44 0 0 1-.62-.14l-5.5-2.5a1.5 1.5 0 0 1 .62-2.86z" transform="translate(-303.25 -183)"/></svg>