<svg id="Layer_1" data-name="Layer 1" xmlns="http://www.w3.org/2000/svg" viewBox="0 0 64 64"><defs><style>.cls-2{fill:#29b7a0;fill-rule:evenodd}</style></defs><path d="M567.22 182.51a32 32 0 1 0 32 32 32 32 0 0 0-32-32zm0 59a27 27 0 1 1 27-27 27 27 0 0 1-27 27z" transform="translate(-535.22 -182.51)" fill="#29b7a0"/><path id="MACBOOK" class="cls-2" d="M584.2 227h-33.41a1.73 1.73 0 0 1-1.73-1.73v-2.88h3.46v-16.7a1.72 1.72 0 0 1 1.73-1.73h26.49a1.72 1.72 0 0 1 1.73 1.73v16.7h3.46v2.88a1.73 1.73 0 0 1-1.73 1.73zm-20.74-1.73h8.07v-1.15h-8.07zm16.71-19h-25.35v15h25.35z" transform="translate(-535.22 -182.51)"/><path id="MAIL" class="cls-2" d="M569.53 213.72l3.51-3.4a.55.55 0 0 1 .16.39v6.84a.51.51 0 0 1-.14.36zm-7.67-3.41a.52.52 0 0 1 .36-.14h10.44a.51.51 0 0 1 .36.14l-5.58 4.36zm0 7.6a.51.51 0 0 1-.15-.36v-6.84a.55.55 0 0 1 .16-.39l3.51 3.4zm5.61-2.16l1.47-1.42 4.12 3.61a.52.52 0 0 1-.37.15h-10.47a.56.56 0 0 1-.37-.15l4.13-3.61z" transform="translate(-535.22 -182.51)"/></svg>